<?xml version="1.0" encoding="UTF-8" standalone="no"?>
<!-- Created with Inkscape (http://www.inkscape.org/) -->

<svg
   xmlns:dc="http://purl.org/dc/elements/1.1/"
   xmlns:cc="http://creativecommons.org/ns#"
   xmlns:rdf="http://www.w3.org/1999/02/22-rdf-syntax-ns#"
   xmlns:svg="http://www.w3.org/2000/svg"
   xmlns="http://www.w3.org/2000/svg"
   xmlns:inkscape="http://www.inkscape.org/namespaces/inkscape"
   version="1.1"
   width="28.371626"
   height="31.964125"
   id="svg2"
   xml:space="preserve"><metadata
     id="metadata8"><rdf:RDF><cc:Work
         rdf:about=""><dc:format>image/svg+xml</dc:format><dc:type
           rdf:resource="http://purl.org/dc/dcmitype/StillImage" /></cc:Work></rdf:RDF></metadata><defs
     id="defs6"><clipPath
       id="clipPath16"><path
         d="m 0,25.571 22.697,0 L 22.697,0 0,0 0,25.571 z"
         inkscape:connector-curvature="0"
         id="path18" /></clipPath></defs><g
     transform="matrix(1.25,0,0,-1.25,0,31.964125)"
     id="g10"><g
       id="g12"><g
         clip-path="url(#clipPath16)"
         id="g14"><g
           transform="translate(11.4004,0)"
           id="g20"><path
             d="m 0,0 -0.052,0 c -0.292,0 -0.587,0.012 -0.875,0.033 l 0.286,3.736 C -0.457,3.754 -0.27,3.747 -0.082,3.746 l 0.041,0 0,-1.883 L 0.053,0.003 0,0 z"
             inkscape:connector-curvature="0"
             id="path22"
             style="fill:#ffffff;fill-opacity:1;fill-rule:nonzero;stroke:none" /></g><g
           transform="translate(9.1494,0.2129)"
           id="g24"><path
             d="M 0,0 C -0.291,0.058 -0.582,0.127 -0.867,0.207 L 0.145,3.813 C 0.333,3.761 0.527,3.714 0.723,3.676 L 0,0 z"
             inkscape:connector-curvature="0"
             id="path26"
             style="fill:#ffffff;fill-opacity:1;fill-rule:nonzero;stroke:none" /></g><g
           transform="translate(7.0186,0.8564)"
           id="g28"><path
             d="m 0,0 c -0.271,0.112 -0.543,0.237 -0.809,0.372 l 1.696,3.34 C 1.065,3.621 1.248,3.537 1.43,3.462 L 0,0 z"
             inkscape:connector-curvature="0"
             id="path30"
             style="fill:#ffffff;fill-opacity:1;fill-rule:nonzero;stroke:none" /></g><g
           transform="translate(5.0557,1.9043)"
           id="g32"><path
             d="M 0,0 C -0.248,0.164 -0.49,0.341 -0.723,0.524 L 1.596,3.466 C 1.752,3.343 1.914,3.226 2.078,3.115 L 0,0 z"
             inkscape:connector-curvature="0"
             id="path34"
             style="fill:#ffffff;fill-opacity:1;fill-rule:nonzero;stroke:none" /></g><g
           transform="translate(3.3359,3.3125)"
           id="g36"><path
             d="m 0,0 c -0.208,0.208 -0.412,0.427 -0.604,0.651 l 2.841,2.44 C 2.367,2.939 2.504,2.792 2.645,2.652 L 0,0 z"
             inkscape:connector-curvature="0"
             id="path38"
             style="fill:#ffffff;fill-opacity:1;fill-rule:nonzero;stroke:none" /></g><g
           transform="translate(1.9229,5.0273)"
           id="g40"><path
             d="M 0,0 C -0.164,0.245 -0.321,0.499 -0.467,0.756 L 2.795,2.598 C 2.893,2.425 2.999,2.253 3.109,2.088 L 0,0 z"
             inkscape:connector-curvature="0"
             id="path42"
             style="fill:#ffffff;fill-opacity:1;fill-rule:nonzero;stroke:none" /></g><g
           transform="translate(0.8701,6.9834)"
           id="g44"><path
             d="M 0,0 C -0.114,0.274 -0.219,0.556 -0.311,0.838 L 3.25,2 C 3.311,1.812 3.381,1.626 3.456,1.444 L 0,0 z"
             inkscape:connector-curvature="0"
             id="path46"
             style="fill:#ffffff;fill-opacity:1;fill-rule:nonzero;stroke:none" /></g><g
           transform="translate(0.2207,9.1133)"
           id="g48"><path
             d="M 0,0 C -0.058,0.29 -0.104,0.586 -0.14,0.879 L 3.579,1.324 C 3.603,1.127 3.634,0.929 3.673,0.734 L 0,0 z"
             inkscape:connector-curvature="0"
             id="path50"
             style="fill:#ffffff;fill-opacity:1;fill-rule:nonzero;stroke:none" /></g><g
           transform="translate(0,11.3281)"
           id="g52"><path
             d="M 0,0 0,0.021 C 0,0.308 0.011,0.598 0.032,0.884 L 3.768,0.603 C 3.753,0.41 3.745,0.215 3.745,0.021 L 0,0 z"
             inkscape:connector-curvature="0"
             id="path54"
             style="fill:#ffffff;fill-opacity:1;fill-rule:nonzero;stroke:none" /></g><g
           transform="translate(3.8877,12.8164)"
           id="g56"><path
             d="m 0,0 -3.678,0.72 c 0.058,0.291 0.127,0.583 0.206,0.866 L 0.137,0.581 C 0.084,0.392 0.037,0.195 0,0"
             inkscape:connector-curvature="0"
             id="path58"
             style="fill:#ffffff;fill-opacity:1;fill-rule:nonzero;stroke:none" /></g><g
           transform="translate(4.3145,14.2412)"
           id="g60"><path
             d="m 0,0 -3.464,1.427 c 0.113,0.273 0.238,0.546 0.372,0.81 L 0.249,0.543 C 0.159,0.366 0.075,0.184 0,0"
             inkscape:connector-curvature="0"
             id="path62"
             style="fill:#ffffff;fill-opacity:1;fill-rule:nonzero;stroke:none" /></g><g
           transform="translate(5.0146,15.5566)"
           id="g64"><path
             d="m 0,0 -3.118,2.075 c 0.164,0.246 0.34,0.489 0.523,0.723 L 0.35,0.483 C 0.227,0.327 0.109,0.165 0,0"
             inkscape:connector-curvature="0"
             id="path66"
             style="fill:#ffffff;fill-opacity:1;fill-rule:nonzero;stroke:none" /></g><g
           transform="translate(11.3486,22.6982)"
           id="g68"><path
             d="m 0,0 c -1.051,0 -2.068,-0.147 -3.035,-0.417 l -0.789,3.29 -3.922,-6.334 6.381,-3.91 -0.795,3.309 c 0.685,0.203 1.41,0.316 2.16,0.316 4.192,0 7.603,-3.411 7.603,-7.603 0,-4.004 -3.112,-7.287 -7.043,-7.575 l 0,-3.76 c 5.999,0.293 10.789,5.265 10.789,11.335 C 11.349,-5.091 6.258,0 0,0"
             inkscape:connector-curvature="0"
             id="path70"
             style="fill:#ffffff;fill-opacity:1;fill-rule:nonzero;stroke:none" /></g><g
           transform="translate(20.3975,11.3496)"
           id="g72"><path
             d="m 0,0 c 0,-4.998 -4.049,-9.051 -9.049,-9.051 -4.998,0 -9.049,4.053 -9.049,9.051 0,4.998 4.051,9.05 9.049,9.05 C -4.049,9.05 0,4.998 0,0"
             inkscape:connector-curvature="0"
             id="path74"
             style="fill:#e05206;fill-opacity:1;fill-rule:nonzero;stroke:none" /></g><g
           transform="translate(17.8408,11.4863)"
           id="g76"><path
             d="m 0,0 c -0.023,0.391 -0.141,0.604 -0.251,0.774 -0.111,0.17 -0.395,0.468 -0.508,0.554 -0.028,0.092 -0.114,0.253 -0.166,0.302 -0.033,0.086 -0.14,0.263 -0.204,0.333 -0.064,0.072 -0.231,0.196 -0.231,0.196 0,0 -0.028,0.064 0.03,0.096 0.057,0.032 0.226,0.028 0.226,0.028 0,0 0.039,-0.074 0.128,-0.071 0.089,0.004 0.334,0.032 0.487,0.054 0.152,0.021 0.404,0.12 0.432,0.231 0.029,0.109 0.013,0.43 -0.02,0.482 -0.037,0.053 -0.129,0.156 -0.26,0.209 -0.131,0.053 -0.426,0.071 -0.721,0.068 -0.295,-0.004 -0.279,-0.1 -0.279,-0.241 0,-0.143 0.134,-0.49 0.134,-0.49 l -0.333,0 c -0.143,0.415 -0.793,1.562 -0.92,1.763 -0.128,0.203 -0.252,0.307 -0.327,0.331 -0.075,0.025 -0.286,0.032 -0.401,0.039 -0.571,0.088 -2.478,0.188 -3.309,0.188 -0.829,0 -2.736,-0.1 -3.308,-0.188 -0.112,-0.007 -0.326,-0.014 -0.4,-0.039 -0.077,-0.024 -0.199,-0.128 -0.326,-0.331 -0.13,-0.201 -0.779,-1.348 -0.92,-1.763 l -0.336,0 c 0,0 0.137,0.347 0.137,0.49 0,0.141 0.014,0.237 -0.281,0.241 -0.295,0.003 -0.59,-0.015 -0.72,-0.068 -0.131,-0.053 -0.225,-0.156 -0.26,-0.209 -0.035,-0.052 -0.049,-0.373 -0.022,-0.482 0.031,-0.111 0.282,-0.21 0.434,-0.231 0.152,-0.022 0.397,-0.05 0.486,-0.054 0.089,-0.003 0.129,0.071 0.129,0.071 0,0 0.171,0.004 0.227,-0.028 0.056,-0.032 0.028,-0.096 0.028,-0.096 0,0 -0.166,-0.124 -0.231,-0.196 -0.064,-0.07 -0.171,-0.247 -0.202,-0.333 -0.053,-0.049 -0.138,-0.21 -0.168,-0.302 -0.113,-0.086 -0.396,-0.384 -0.506,-0.554 -0.11,-0.17 -0.227,-0.383 -0.252,-0.774 -0.026,-0.391 0.002,-1.025 0.098,-1.738 0,0 -0.05,-1.261 -0.043,-1.655 0.008,-0.394 -0.02,-1.604 0.218,-1.671 0.237,-0.068 1.051,-0.062 1.281,-0.046 0.231,0.013 0.398,0.521 0.395,1.149 0.574,-0.035 1.18,-0.067 1.293,-0.043 0.112,0.025 0.224,0.124 0.268,0.203 0.111,-0.068 0.375,-0.063 0.473,-0.061 0.095,0.004 0.166,0.053 0.166,0.053 l 4.687,0 c 0,0 0.07,-0.049 0.166,-0.053 0.094,-0.002 0.361,-0.007 0.471,0.061 0.044,-0.079 0.157,-0.178 0.271,-0.203 0.11,-0.024 0.717,0.008 1.292,0.043 -0.004,-0.628 0.164,-1.136 0.393,-1.149 0.232,-0.016 1.044,-0.022 1.282,0.046 0.238,0.067 0.21,1.277 0.216,1.671 0.008,0.394 -0.042,1.655 -0.042,1.655 C -0.003,-1.025 0.025,-0.391 0,0"
             inkscape:connector-curvature="0"
             id="path78"
             style="fill:#ffffff;fill-opacity:1;fill-rule:nonzero;stroke:none" /></g></g></g></g></svg>